<?xml version="1.0" standalone="no"?>
<!DOCTYPE svg PUBLIC "-//W3C//DTD SVG 20010904//EN"
 "http://www.w3.org/TR/2001/REC-SVG-20010904/DTD/svg10.dtd">
<svg version="1.0" xmlns="http://www.w3.org/2000/svg"
 width="600.000000pt" height="600.000000pt" viewBox="0 0 600.000000 600.000000"
 preserveAspectRatio="xMidYMid meet">
<metadata>
Created by potrace 1.14, written by Peter Selinger 2001-2017
</metadata>
<g transform="translate(0.000000,600.000000) scale(0.100000,-0.100000)"
fill="#000000" stroke="none">
<path d="M2880 3516 c0 -35 -10 -55 -23 -50 -7 2 -18 0 -25 -4 -15 -10 -5 -42
13 -42 21 0 40 -79 37 -154 -1 -21 5 -48 13 -59 8 -12 15 -42 15 -68 0 -27 6
-51 13 -58 8 -6 15 -23 15 -38 2 -38 6 -56 16 -71 4 -7 2 -19 -4 -27 -9 -11
-9 -15 -1 -15 6 0 11 -7 11 -16 0 -8 -5 -12 -11 -8 -7 4 -6 -3 2 -17 7 -13 12
-25 12 -26 -1 -2 1 -12 4 -23 3 -13 14 -20 29 -20 26 0 24 5 28 -111 1 -57 -8
-67 -30 -30 -10 17 -22 31 -27 31 -4 0 -20 9 -35 20 -31 23 -61 18 -63 -9 -1
-9 -4 -5 -8 9 -5 19 -14 26 -40 28 -30 3 -32 2 -21 -18 6 -11 8 -25 5 -30 -3
-5 -1 -20 5 -32 9 -20 9 -21 -2 -7 -7 9 -19 14 -25 12 -7 -3 -13 0 -13 5 0 5
-11 13 -25 16 -14 4 -25 11 -25 16 0 6 -20 10 -45 10 -25 0 -45 -4 -45 -10 0
-5 7 -10 15 -10 8 0 15 -5 15 -11 0 -8 -13 -9 -40 -5 -32 5 -50 1 -99 -25 -33
-18 -68 -41 -78 -53 -18 -21 -18 -21 2 -5 23 18 188 69 223 69 14 0 22 6 22
18 0 13 5 11 24 -10 14 -17 33 -28 48 -28 26 0 68 -30 68 -47 0 -6 7 -16 15
-23 17 -14 19 -3 6 33 -5 14 -6 30 0 38 13 22 36 -8 42 -57 4 -39 3 -41 -19
-36 -23 4 -24 4 -9 -24 8 -16 15 -33 15 -39 0 -5 5 -27 11 -48 8 -31 14 -38
30 -34 15 4 21 -3 30 -34 7 -21 18 -39 25 -39 10 0 29 -29 22 -35 -7 -6 -47
-25 -52 -25 -2 0 -3 11 0 25 4 23 2 25 -23 19 -16 -4 -36 -11 -46 -16 -9 -5
-22 -6 -27 -3 -6 3 -10 1 -10 -5 0 -6 -4 -9 -9 -6 -14 9 -42 -5 -34 -17 4 -6
0 -8 -11 -4 -9 4 -46 0 -83 -9 -112 -26 -132 -18 -248 102 -113 115 -164 147
-193 118 -9 -10 -18 -21 -18 -26 -1 -4 -2 -11 -3 -14 0 -4 -9 0 -18 7 -16 13
-17 12 -4 -3 7 -10 17 -16 21 -13 5 3 12 0 16 -6 4 -8 3 -9 -4 -5 -7 4 -12 2
-12 -4 0 -7 -8 -9 -19 -5 -27 8 -32 -17 -10 -46 11 -15 19 -41 19 -67 0 -29 8
-55 25 -80 17 -26 21 -38 13 -43 -8 -5 -3 -12 15 -20 15 -7 27 -18 27 -25 0
-7 5 -16 12 -20 7 -5 9 -2 4 7 -4 8 14 -9 41 -37 44 -48 147 -113 159 -102 3
3 -19 21 -48 39 -52 33 -80 60 -72 68 2 2 12 -3 21 -12 16 -14 106 -55 156
-71 27 -8 20 -26 -10 -26 -20 0 -24 -3 -14 -9 8 -5 27 -5 45 0 17 5 50 9 73 9
24 0 43 4 43 9 0 5 -8 7 -19 4 -10 -3 -22 0 -25 6 -4 6 -1 11 6 11 7 0 24 3
37 7 20 5 23 3 18 -11 -4 -10 -3 -15 3 -11 6 3 10 13 10 21 0 8 5 12 10 9 14
-9 105 22 120 40 10 13 5 12 -36 0 -27 -9 -71 -20 -99 -25 -27 -6 -63 -15 -78
-21 -34 -14 -90 1 -133 37 -33 27 -16 32 22 7 29 -19 118 -21 139 -3 7 6 39
13 70 15 64 5 127 37 118 60 -4 11 -10 12 -25 4 -11 -6 -22 -8 -26 -5 -7 7 17
27 78 63 25 15 51 33 58 40 34 33 49 34 62 3 14 -35 30 -30 30 8 l1 27 14 -25
c12 -22 14 -22 15 -5 0 14 3 16 12 7 20 -20 38 6 38 54 0 35 5 47 25 60 30 20
24 37 -9 24 -20 -7 -25 -5 -30 13 -3 12 -6 34 -6 48 0 14 -7 34 -15 45 -17 23
-21 154 -4 154 5 0 8 -4 5 -8 -2 -4 -1 -14 3 -21 5 -8 13 22 20 75 6 49 16
103 21 121 14 41 29 460 19 497 -17 59 -76 124 -176 194 -20 14 -46 22 -72 22
-37 0 -41 -3 -41 -24z m60 -397 c0 -6 -4 -7 -10 -4 -5 3 -10 11 -10 16 0 6 5
7 10 4 6 -3 10 -11 10 -16z m-15 -559 c3 -5 1 -10 -4 -10 -6 0 -11 5 -11 10 0
6 2 10 4 10 3 0 8 -4 11 -10z m5 -95 c0 -8 -2 -15 -4 -15 -2 0 -6 7 -10 15 -3
8 -1 15 4 15 6 0 10 -7 10 -15z m-251 -381 c2 -2 -10 -4 -28 -4 -19 0 -30 -4
-26 -10 9 -14 -7 -12 -28 5 -11 7 -25 11 -33 8 -8 -3 -14 0 -14 6 0 9 118 5
129 -5z"/>
<path d="M3530 2934 c-6 -14 -10 -29 -10 -34 0 -5 -7 -7 -15 -4 -8 4 -15 1
-15 -6 0 -6 -4 -9 -9 -5 -6 3 -9 -39 -8 -104 1 -60 5 -104 9 -98 12 18 9 -2
-2 -24 -7 -11 -7 -19 -1 -19 5 0 15 -17 21 -37 6 -21 14 -45 17 -53 9 -23 4
-40 -22 -68 -13 -14 -22 -29 -19 -34 3 -5 0 -7 -8 -6 -7 2 -12 -3 -10 -9 1 -7
-2 -13 -8 -13 -5 0 -10 -6 -10 -13 0 -6 -16 -27 -35 -44 -45 -42 -45 -53 0
-19 l35 27 -25 -47 c-14 -25 -22 -51 -18 -57 3 -6 1 -7 -5 -3 -7 4 -12 2 -12
-5 0 -6 -15 -26 -32 -43 -42 -39 -61 -73 -46 -82 6 -4 8 -2 5 3 -7 12 15 35
29 31 5 -1 19 3 30 10 12 6 24 8 28 5 3 -3 6 -1 6 5 0 7 7 12 16 12 9 0 36 16
60 36 66 54 64 35 -3 -31 l-58 -57 46 25 c32 18 46 21 46 11 0 -7 -4 -11 -8
-9 -3 3 -12 -2 -18 -9 -18 -21 5 -31 32 -13 100 65 242 209 254 257 3 14 17
41 30 61 29 43 43 121 30 169 -18 71 -157 251 -228 296 -49 30 -57 30 -69 -2z"/>
<path d="M2730 2726 c0 -2 9 -6 20 -9 11 -3 20 -1 20 4 0 5 -9 9 -20 9 -11 0
-20 -2 -20 -4z"/>
<path d="M2370 2570 c-9 -6 -10 -10 -3 -10 6 0 15 5 18 10 8 12 4 12 -15 0z"/>
<path d="M3458 2560 c-30 -9 -172 -83 -202 -106 -40 -29 -8 -22 69 15 44 21
96 43 115 49 19 7 41 21 48 32 13 22 11 22 -30 10z"/>
<path d="M3418 2443 c-26 -7 -32 -33 -6 -30 12 2 22 11 24 20 1 10 2 16 1 16
-1 -1 -9 -3 -19 -6z"/>
</g>
</svg>
