<?xml version="1.0" standalone="no"?>
<!DOCTYPE svg PUBLIC "-//W3C//DTD SVG 20010904//EN"
 "http://www.w3.org/TR/2001/REC-SVG-20010904/DTD/svg10.dtd">
<svg version="1.0" xmlns="http://www.w3.org/2000/svg"
 width="600.000000pt" height="600.000000pt" viewBox="0 0 600.000000 600.000000"
 preserveAspectRatio="xMidYMid meet">
<metadata>
Created by potrace 1.14, written by Peter Selinger 2001-2017
</metadata>
<g transform="translate(0.000000,600.000000) scale(0.100000,-0.100000)"
fill="#000000" stroke="none">
<path d="M2875 3540 c-3 -6 -4 -18 -1 -28 6 -19 -6 -44 -20 -41 -5 1 -17 -1
-26 -5 -19 -9 -13 -36 8 -36 21 0 35 -46 38 -125 2 -41 10 -84 20 -102 9 -18
16 -50 16 -72 0 -22 4 -42 9 -45 10 -7 24 -91 27 -161 2 -58 19 -109 34 -100
26 16 40 -18 40 -91 0 -41 -1 -74 -3 -74 -2 0 -26 20 -53 45 -35 33 -56 45
-74 43 -14 -1 -34 3 -44 9 -22 12 -56 6 -51 -10 2 -7 6 -26 9 -44 l5 -32 -55
30 c-62 32 -148 43 -109 13 19 -14 17 -15 -25 -13 -32 1 -60 -6 -97 -25 -98
-50 -66 -50 85 0 24 8 47 12 52 9 4 -3 13 2 20 10 11 13 15 12 31 -7 11 -11
36 -24 56 -27 26 -4 41 -14 49 -29 24 -48 35 -50 28 -6 -3 24 -2 44 4 48 17
10 36 -24 37 -65 1 -34 -1 -38 -18 -33 -16 5 -19 3 -13 -12 7 -16 20 -57 36
-109 8 -28 13 -33 25 -29 8 4 20 -8 30 -29 9 -20 23 -38 31 -41 19 -7 18 -42
-2 -50 -26 -10 -34 -7 -34 14 0 24 -23 26 -64 5 -15 -8 -37 -15 -47 -15 -10 0
-21 -4 -24 -10 -3 -5 -20 -9 -38 -8 -18 1 -56 -7 -84 -16 -85 -28 -118 -14
-238 108 -103 105 -154 138 -184 119 -9 -6 -16 -21 -16 -34 0 -31 -12 -49 -29
-43 -22 9 -29 -15 -12 -41 9 -13 16 -43 16 -66 0 -30 8 -52 26 -76 14 -19 23
-40 21 -48 -4 -8 10 -24 33 -40 21 -14 57 -46 80 -71 36 -39 125 -92 136 -82
2 3 -17 17 -41 33 -42 26 -74 55 -62 55 3 0 32 -13 65 -30 34 -16 67 -30 75
-30 7 0 22 -7 33 -15 19 -14 18 -14 -3 -15 -13 0 -23 -5 -23 -11 0 -7 10 -9
28 -4 15 4 52 10 82 14 37 6 45 9 25 10 l-30 3 30 13 c21 9 34 10 43 3 8 -7
12 -7 12 2 0 7 6 10 14 7 14 -6 121 41 113 49 -2 2 -24 -3 -48 -11 -24 -9 -62
-18 -84 -21 -22 -3 -53 -11 -69 -19 -16 -8 -34 -15 -41 -15 -17 0 -112 47
-120 60 -8 13 -6 13 45 -5 44 -16 67 -14 174 14 21 5 44 7 52 4 15 -5 94 36
94 49 0 5 -7 11 -15 14 -25 10 -18 20 38 55 28 18 63 42 75 53 l24 21 24 -30
c22 -28 24 -28 24 -8 0 25 16 39 23 21 4 -10 8 -10 15 1 8 11 10 11 15 0 9
-26 31 9 32 52 1 30 7 47 23 59 30 25 28 33 -7 25 -28 -6 -29 -5 -36 45 -4 29
-13 64 -21 78 -15 30 -17 96 -4 127 8 19 9 19 9 1 2 -33 14 -9 23 46 37 207
43 279 43 508 0 131 -1 136 -27 175 -27 40 -100 107 -148 137 -32 20 -107 31
-115 18z m-210 -1450 c6 -1 -5 -6 -24 -10 -23 -5 -44 -3 -65 6 -30 14 -30 14
24 10 30 -3 60 -5 65 -6z"/>
<path d="M3527 2953 c-4 -3 -7 -17 -7 -30 0 -14 -5 -23 -12 -22 -7 1 -20 -1
-28 -5 -16 -7 -16 -8 -9 -198 1 -32 5 -58 10 -58 4 0 11 -17 15 -37 4 -21 11
-43 16 -50 13 -17 3 -43 -32 -80 -16 -18 -30 -36 -30 -41 0 -5 -18 -28 -40
-51 -46 -48 -51 -60 -14 -36 29 18 43 15 19 -5 -8 -7 -15 -20 -15 -30 0 -10
-7 -23 -15 -30 -8 -7 -15 -18 -15 -25 0 -7 -13 -24 -28 -37 -15 -13 -31 -31
-34 -40 -6 -14 -2 -15 20 -9 32 10 112 51 162 83 l35 23 -35 -42 c-19 -24 -38
-43 -42 -43 -5 0 -8 -5 -8 -10 0 -6 13 -4 30 5 26 13 29 14 24 0 -4 -8 -11
-15 -17 -15 -8 0 -8 -3 0 -11 14 -14 25 -8 120 71 72 58 163 157 163 174 0 4
16 40 35 79 56 113 50 155 -44 287 -97 137 -192 215 -224 183z"/>
<path d="M3405 2543 c-71 -32 -169 -92 -162 -99 3 -3 42 12 88 34 46 22 94 42
105 46 12 4 29 15 39 26 25 28 4 26 -70 -7z"/>
<path d="M3402 2438 c-18 -18 -14 -27 8 -21 21 6 26 18 12 27 -5 3 -14 0 -20
-6z"/>
</g>
</svg>
